# xmcd
#
# Track frame offsets:
#	150
#	30287
#	48287
#	70211
#	85979
#	99923
#	130667
#	162912
#	189716
#	208339
#	230900
#
# Disc length: 3416 seconds
#
# Revision: 0
# Processed by: cddbd v1.5.2PL0 Copyright (c) Steve Scherf et al.
# Submitted via: dBpowerAMP V4.0
#
DISCID=920d560b
DTITLE=Joe Bonamassa - Driving towards the daylight
DYEAR=1900
DGENRE=Blues
TTITLE0=Dislocated boy
TTITLE1=Stones in my passway
TTITLE2=Driving towards the daylight
TTITLE3=Who's been talking
TTITLE4=I got all you need
TTITLE5=A place in my heart
TTITLE6=Lonely town lonely street
TTITLE7=heavenly soul
TTITLE8=New coat of paint
TTITLE9=Somewhere trouble don't go
TTITLE10=Too much ain't enough love
EXTD=
EXTT0=
EXTT1=
EXTT2=
EXTT3=
EXTT4=
EXTT5=
EXTT6=
EXTT7=
EXTT8=
EXTT9=
EXTT10=
PLAYORDER=
